<svg viewBox="0 0 1024 1024" version="1.1" xmlns="http://www.w3.org/2000/svg">
  <path d="M832 704V320a64.07 64.07 0 0 0-64-64H256a64.07 64.07 0 0 0-64 64v384a64.07 64.07 0 0 0 64 64h512a64.07 64.07 0 0 0 64-64zM256 320h512v384H256z m704 416v96a64.07 64.07 0 0 1-64 64h-96a32 32 0 0 1 0-64h96v-96a32 32 0 0 1 64 0zM64 288v-96a64.07 64.07 0 0 1 64-64h96a32 32 0 0 1 0 64h-96v96a32 32 0 0 1-64 0z m192 576a32 32 0 0 1-32 32h-96a64.07 64.07 0 0 1-64-64v-96a32 32 0 0 1 64 0v96h96a32 32 0 0 1 32 32z m704-672v96a32 32 0 0 1-64 0v-96h-96a32 32 0 0 1 0-64h96a64.07 64.07 0 0 1 64 64z" fill="currentColor"></path>
</svg>